<?xml version="1.0" encoding="UTF-8" standalone="no"?>
<svg
   width="256"
   height="256"
   viewBox="0 0 256 256"
   version="1.1"
   id="svg2"
   sodipodi:docname="uc222.svg"
   inkscape:version="1.4.2 (f4327f4, 2025-05-13)"
   xmlns:inkscape="http://www.inkscape.org/namespaces/inkscape"
   xmlns:sodipodi="http://sodipodi.sourceforge.net/DTD/sodipodi-0.dtd"
   xmlns="http://www.w3.org/2000/svg"
   xmlns:svg="http://www.w3.org/2000/svg">
  <defs
     id="defs2" />
  <sodipodi:namedview
     id="namedview2"
     pagecolor="#ffffff"
     bordercolor="#000000"
     borderopacity="0.25"
     inkscape:showpageshadow="2"
     inkscape:pageopacity="0.0"
     inkscape:pagecheckerboard="0"
     inkscape:deskcolor="#d1d1d1"
     showgrid="false"
     inkscape:zoom="1.5761719"
     inkscape:cx="134.82032"
     inkscape:cy="127.84139"
     inkscape:window-width="1920"
     inkscape:window-height="1009"
     inkscape:window-x="-8"
     inkscape:window-y="-8"
     inkscape:window-maximized="1"
     inkscape:current-layer="layer2" />
  <g
     inkscape:groupmode="layer"
     id="layer1"
     inkscape:label="Fundo">
    <rect
       style="fill:#6a6b6e;fill-opacity:0.6;stroke:#000000"
       id="rect3"
       width="240"
       height="240"
       x="8"
       y="8"
       rx="20.0002"
       ry="20"
       inkscape:label="Fundo"
       sodipodi:insensitive="true" />
  </g>
  <!-- Borda externa -->
  <!-- Borda interna (chanfro / brilho suave) -->
  <!-- Aqui dentro você desenha o ícone depois -->
  <!-- <g id="icon"> … </g> -->
  <g
     inkscape:groupmode="layer"
     id="layer3"
     inkscape:label="Borda"
     sodipodi:insensitive="true">
    <rect
       x="8"
       y="8"
       width="240"
       height="240"
       rx="28"
       ry="28"
       fill="none"
       stroke="#2b1a10"
       stroke-width="8"
       id="rect1"
       inkscape:label="Externa" />
    <rect
       x="16"
       y="16"
       width="224"
       height="224"
       rx="22"
       ry="22"
       fill="none"
       stroke="#6b4a32"
       stroke-width="4"
       id="rect2"
       inkscape:label="Interna" />
  </g>
  <g
     inkscape:groupmode="layer"
     id="layer2"
     inkscape:label="Contract">
    <g
       id="g1"
       transform="matrix(0.24549528,-0.28621659,0.28621659,0.24549528,-29.303332,140.01835)">
	<path
   class="st0"
   d="m 512,169.146 c -44.289,8.053 -72.49,61.657 -84.707,72.735 -1.318,-0.387 -2.676,-0.65 -4.116,-0.65 h -22.098 v -47.926 c 0,-5.99 -4.86,-10.851 -10.851,-10.851 -5.991,0 -10.851,4.86 -10.851,10.851 v 47.926 H 344.818 V 183.66 c 0,-5.99 -4.86,-10.851 -10.851,-10.851 -5.991,0 -10.851,4.86 -10.851,10.851 v 57.571 h -34.569 v -67.216 c 0,-5.991 -4.86,-10.851 -10.851,-10.851 -5.991,0 -10.851,4.86 -10.851,10.851 v 67.216 H 232.286 V 183.66 c 0,-5.99 -4.86,-10.851 -10.851,-10.851 -5.99,0 -10.851,4.86 -10.851,10.851 v 57.571 H 178.992 C 176.807,173.921 160.371,136.122 160.371,136.122 67.385,141.886 0,231.443 0,231.443 L 18.867,255.999 0,280.555 c 0,0 67.385,89.549 160.372,95.323 0,0 16.436,-37.8 18.621,-105.109 h 31.592 v 57.57 c 0,5.991 4.86,10.851 10.851,10.851 5.991,0 10.851,-4.86 10.851,-10.851 v -57.57 h 34.559 v 67.215 c 0,5.991 4.86,10.851 10.851,10.851 5.99,0 10.851,-4.86 10.851,-10.851 v -67.215 h 34.569 v 57.57 c 0,5.991 4.86,10.851 10.851,10.851 5.991,0 10.851,-4.86 10.851,-10.851 v -57.57 h 34.559 v 47.924 c 0,5.991 4.86,10.851 10.851,10.851 5.991,0 10.851,-4.86 10.851,-10.851 v -47.924 h 22.098 c 1.441,0 2.807,-0.273 4.126,-0.66 12.217,11.096 40.418,64.692 84.697,72.745 l -7.488,-86.855 z M 99.665,242.483 c -9.325,0 -16.88,-7.554 -16.88,-16.879 0,-9.325 7.554,-16.879 16.88,-16.879 9.325,0 16.879,7.554 16.879,16.879 0,9.325 -7.554,16.879 -16.879,16.879 z"
   id="path1-7"
   style="fill:#000000" />

</g>
  </g>
  <g
     inkscape:groupmode="layer"
     id="layer4"
     inkscape:label="Upgrade">
    <g
       id="Time"
       transform="matrix(1.654716,0,0,1.654716,185.53585,185.53585)"
       style="fill:none;stroke-width:0.604333;stroke-dasharray:none"
       inkscape:transform-center-x="4.1239157">
      <path
         d="m 12,21 c 4.9706,0 9,-4.0294 9,-9 0,-4.97056 -4.0294,-9 -9,-9 -4.97056,0 -9,4.02944 -9,9 0,4.9706 4.02944,9 9,9 z"
         stroke="#000000"
         stroke-width="1.5"
         stroke-linecap="round"
         stroke-linejoin="round"
         id="path1"
         style="fill:none;stroke-width:0.604333;stroke-dasharray:none" />
      <path
         d="m 12,6 v 6"
         stroke="#000000"
         stroke-width="1.5"
         stroke-linecap="round"
         stroke-linejoin="round"
         id="path2"
         style="fill:none;stroke-width:0.604333;stroke-dasharray:none" />
      <path
         d="M 16.24,16.24 12,12"
         stroke="#000000"
         stroke-width="1.5"
         stroke-linecap="round"
         stroke-linejoin="round"
         id="path3"
         style="fill:none;stroke-width:0.604333;stroke-dasharray:none" />
    </g>
  </g>
</svg>
