<?xml version="1.0" encoding="UTF-8" standalone="no"?>
<svg
   width="256"
   height="256"
   viewBox="0 0 256 256"
   version="1.1"
   id="svg2"
   sodipodi:docname="ut0113.svg"
   inkscape:version="1.4.2 (f4327f4, 2025-05-13)"
   xmlns:inkscape="http://www.inkscape.org/namespaces/inkscape"
   xmlns:sodipodi="http://sodipodi.sourceforge.net/DTD/sodipodi-0.dtd"
   xmlns="http://www.w3.org/2000/svg"
   xmlns:svg="http://www.w3.org/2000/svg">
  <defs
     id="defs2" />
  <sodipodi:namedview
     id="namedview2"
     pagecolor="#ffffff"
     bordercolor="#000000"
     borderopacity="0.25"
     inkscape:showpageshadow="2"
     inkscape:pageopacity="0.0"
     inkscape:pagecheckerboard="0"
     inkscape:deskcolor="#d1d1d1"
     showgrid="false"
     inkscape:zoom="2.56"
     inkscape:cx="112.30469"
     inkscape:cy="124.80469"
     inkscape:window-width="1920"
     inkscape:window-height="1009"
     inkscape:window-x="-8"
     inkscape:window-y="-8"
     inkscape:window-maximized="1"
     inkscape:current-layer="layer4" />
  <g
     inkscape:groupmode="layer"
     id="layer1"
     inkscape:label="Fundo">
    <rect
       style="fill:#6a6b6e;fill-opacity:0.6;stroke:#000000"
       id="rect3"
       width="240"
       height="240"
       x="8"
       y="8"
       rx="20.0002"
       ry="20"
       inkscape:label="Fundo"
       sodipodi:insensitive="true" />
  </g>
  <!-- Borda externa -->
  <!-- Borda interna (chanfro / brilho suave) -->
  <!-- Aqui dentro você desenha o ícone depois -->
  <!-- <g id="icon"> … </g> -->
  <g
     inkscape:groupmode="layer"
     id="layer3"
     inkscape:label="Borda"
     sodipodi:insensitive="true">
    <rect
       x="8"
       y="8"
       width="240"
       height="240"
       rx="28"
       ry="28"
       fill="none"
       stroke="#2b1a10"
       stroke-width="8"
       id="rect1"
       inkscape:label="Externa" />
    <rect
       x="16"
       y="16"
       width="224"
       height="224"
       rx="22"
       ry="22"
       fill="none"
       stroke="#6b4a32"
       stroke-width="4"
       id="rect2"
       inkscape:label="Interna" />
  </g>
  <g
     inkscape:groupmode="layer"
     id="layer2"
     inkscape:label="Contract">
    <g
       id="g6"
       transform="matrix(0.47081534,0,0,0.47081534,50,13.83226)">
	<g
   id="g5">
		<path
   d="m 234.012,98.45 v -9.438 c 0,-4.143 -3.358,-7.5 -7.5,-7.5 -4.143,0 -7.5,3.357 -7.5,7.5 v 9.438 c 0,4.143 3.357,7.5 7.5,7.5 4.142,0 7.5,-3.357 7.5,-7.5 z"
   id="path1-0" />

		<path
   d="m 198.08,105.951 c 2.352,0 4.668,-1.104 6.131,-3.171 l 6.674,-9.438 c 2.391,-3.382 1.588,-8.063 -1.795,-10.454 -3.381,-2.392 -8.063,-1.589 -10.453,1.794 l -6.674,9.438 c -2.393,3.382 -1.588,8.063 1.793,10.454 1.316,0.93 2.826,1.377 4.324,1.377 z"
   id="path2-9" />

		<path
   d="m 254.943,105.951 c 1.496,0 3.008,-0.447 4.322,-1.377 3.383,-2.392 4.185,-7.072 1.795,-10.454 l -6.674,-9.438 c -2.393,-3.383 -7.074,-4.187 -10.455,-1.794 -3.381,2.392 -4.186,7.072 -1.793,10.454 l 6.674,9.438 c 1.461,2.068 3.778,3.171 6.131,3.171 z"
   id="path3-4" />

		<path
   d="m 225.652,160.192 h -111.47 c -4.143,0 -7.5,3.357 -7.5,7.5 v 82.309 c 0,4.143 3.357,7.5 7.5,7.5 h 111.471 c 4.143,0 7.5,-3.357 7.5,-7.5 v -82.309 c -0.001,-4.142 -3.358,-7.5 -7.501,-7.5 z m -63.236,82.309 h -40.734 v -67.309 h 40.734 z m 55.736,0 h -40.736 v -67.309 h 40.736 z"
   id="path4" />

		<path
   d="m 339.818,282.758 -10,-148.828 c -0.264,-3.938 -3.535,-6.997 -7.482,-6.997 h -17.201 l 29.744,-42.132 c 1.272,-1.8 1.686,-4.068 1.135,-6.202 -0.551,-2.133 -2.014,-3.916 -3.998,-4.876 L 259.846,38.837 C 251.702,29.579 239.782,23.72 226.512,23.72 c -24.486,0 -44.408,19.922 -44.408,44.41 0,4.143 3.358,7.5 7.5,7.5 h 73.817 c 0.008,0.001 0.014,0 0.019,0 4.143,0 7.5,-3.357 7.5,-7.5 0,-0.204 -0.008,-0.405 -0.023,-0.605 -0.033,-2.381 -0.26,-4.714 -0.654,-6.99 l 47.262,22.844 -30.75,43.555 H 17.5 c -3.947,0 -7.219,3.06 -7.484,6.997 l -10,148.828 C 0.01,282.845 0,283.179 0,283.261 v 25.355 c 0,4.142 3.357,7.5 7.5,7.5 h 324.836 c 4.142,0 7.5,-3.358 7.5,-7.5 v -25.355 c 0,-0.082 -0.012,-0.416 -0.018,-0.503 z M 198.072,60.63 c 3.324,-12.596 14.815,-21.91 28.44,-21.91 13.625,0 25.115,9.314 28.439,21.91 z m -173.56,81.303 h 251.672 l -3.879,5.493 c -15.977,2.011 -28.379,15.673 -28.379,32.186 0,4.143 3.357,7.5 7.5,7.5 h 49.902 c 0.008,0.001 0.016,0.001 0.02,0 4.143,0 7.5,-3.357 7.5,-7.5 0,-0.212 -0.008,-0.422 -0.025,-0.629 -0.25,-13.137 -8.348,-24.383 -19.787,-29.248 l 5.51,-7.803 h 20.777 l 8.992,133.828 H 15.521 Z m 267.621,30.179 h -31.512 c 2.811,-5.88 8.816,-9.951 15.756,-9.951 6.939,0 12.947,4.071 15.756,9.951 z m 32.703,129.004 H 15 v -10.355 h 309.836 z"
   id="path5" />

	</g>

</g>
  </g>
  <g
     inkscape:groupmode="layer"
     id="layer4"
     inkscape:label="Upgrade">
    <g
       id="g3"
       style="stroke-width:0.99968;stroke-dasharray:none"
       transform="matrix(0.04414678,0,0,0.03391799,183.67116,190)">
      <path
         d="m 277.675,981.521 c 5.657,0 10.24,-4.583 10.24,-10.24 V 499.514 c 0,-5.651 -4.588,-10.24 -10.24,-10.24 h -81.92 c -5.652,0 -10.24,4.589 -10.24,10.24 v 471.767 c 0,5.657 4.583,10.24 10.24,10.24 z m 0,40.96 h -81.92 c -28.278,0 -51.2,-22.922 -51.2,-51.2 V 499.514 c 0,-28.271 22.924,-51.2 51.2,-51.2 h 81.92 c 28.276,0 51.2,22.929 51.2,51.2 v 471.767 c 0,28.278 -22.922,51.2 -51.2,51.2 z m 275.456,-40.96 c 5.657,0 10.24,-4.583 10.24,-10.24 V 408.777 c 0,-5.657 -4.583,-10.24 -10.24,-10.24 h -81.92 a 10.238,10.238 0 0 0 -10.24,10.24 v 562.504 c 0,5.657 4.583,10.24 10.24,10.24 z m 0,40.96 h -81.92 c -28.278,0 -51.2,-22.922 -51.2,-51.2 V 408.777 c 0,-28.278 22.922,-51.2 51.2,-51.2 h 81.92 c 28.278,0 51.2,22.922 51.2,51.2 v 562.504 c 0,28.278 -22.922,51.2 -51.2,51.2 z m 275.456,-40.016 c 5.657,0 10.24,-4.583 10.24,-10.24 V 318.974 c 0,-5.651 -4.588,-10.24 -10.24,-10.24 h -81.92 c -5.652,0 -10.24,4.589 -10.24,10.24 v 653.251 c 0,5.657 4.583,10.24 10.24,10.24 z m 0,40.96 h -81.92 c -28.278,0 -51.2,-22.922 -51.2,-51.2 V 318.974 c 0,-28.271 22.924,-51.2 51.2,-51.2 h 81.92 c 28.276,0 51.2,22.929 51.2,51.2 v 653.251 c 0,28.278 -22.922,51.2 -51.2,51.2 z M 696.848,40.96 l 102.39,0.154 c 11.311,0.017 20.494,-9.138 20.511,-20.449 C 819.766,9.354 810.611,0.171 799.3,0.154 L 696.91,0 c -11.311,-0.017 -20.494,9.138 -20.511,20.449 -0.017,11.311 9.138,20.494 20.449,20.511 z"
         id="path1"
         style="stroke-width:0.99968;stroke-dasharray:none" />
      <path
         d="m 778.789,20.571 -0.307,101.827 c -0.034,11.311 9.107,20.508 20.418,20.542 11.311,0.034 20.508,-9.107 20.542,-20.418 L 819.749,20.695 C 819.783,9.384 810.642,0.187 799.331,0.153 788.02,0.119 778.823,9.26 778.789,20.571 Z"
         id="path2"
         style="stroke-width:0.99968;stroke-dasharray:none" />
      <path
         d="m 163.84,317.682 h 154.184 a 51.207,51.207 0 0 0 36.211,-14.999 L 457.208,199.71 a 10.263,10.263 0 0 1 7.237,-3.003 h 159.754 a 51.235,51.235 0 0 0 36.198,-14.976 l 141.13,-141.13 c 7.998,-7.998 7.998,-20.965 0,-28.963 -7.998,-7.998 -20.965,-7.998 -28.963,0 L 631.447,152.755 a 10.265,10.265 0 0 1 -7.248,2.992 H 464.445 a 51.226,51.226 0 0 0 -36.201,14.999 L 325.271,273.719 a 10.244,10.244 0 0 1 -7.248,3.003 H 163.839 c -11.311,0 -20.48,9.169 -20.48,20.48 0,11.311 9.169,20.48 20.48,20.48 z"
         id="path3"
         style="stroke-width:0.99968;stroke-dasharray:none" />
    </g>
    <g
       id="g4"
       transform="matrix(0.06835945,0,0,0.06835945,26.829601,190)">
	<path
   class="st0"
   d="M 148.53,401.579 V 357.32 c -13.082,-4.002 -25.808,-8.723 -37.531,-13.818 V 409.3 c 0,30.626 37.256,61.252 37.256,61.252 l 25.542,-28.079 C 153.35,432.294 148.53,401.579 148.53,401.579 Z"
   id="path1-7"
   style="fill:#000000" />

	<path
   class="st0"
   d="m 363.457,401.579 c 0,0 -4.819,30.715 -25.266,40.895 l 25.532,28.079 c 0,0 37.265,-30.626 37.265,-61.252 v -65.798 c -11.724,5.183 -24.538,9.816 -37.531,13.907 z"
   id="path2-6"
   style="fill:#000000" />

	<path
   class="st0"
   d="m 312.801,459.628 c -11.84,-24.335 -33.591,-33.635 -56.798,-22.888 -23.216,-10.747 -44.968,-1.447 -56.807,22.888 -13.632,28.018 -44.675,31.682 -44.675,31.682 0,0 6.816,27.023 45.438,19.302 24.334,-4.864 40.548,-24.272 56.044,-37.975 15.486,13.702 31.7,33.111 56.035,37.975 38.622,7.721 45.438,-19.302 45.438,-19.302 0,0 -31.044,-3.664 -44.675,-31.682 z"
   id="path3-1"
   style="fill:#000000" />

	<path
   class="st0"
   d="m 398.689,212.353 c 0,0 4.491,14.155 -14.438,34.7 4.295,-51.589 6.38,-144.524 17.234,-188.347 C 411.406,18.672 319.811,0 255.994,0 192.185,0 100.598,18.672 110.52,58.706 c 10.853,43.822 12.93,136.758 17.226,188.347 -18.922,-20.545 -14.44,-34.7 -14.44,-34.7 -62.086,-38.215 -102.697,46.574 -21.672,104.331 37.185,26.526 121.796,46.813 161.688,48.588 v 0.143 c 0.843,0 1.766,-0.018 2.672,-0.045 0.922,0.026 1.836,0.045 2.689,0.045 v -0.143 c 39.882,-1.775 124.494,-22.062 161.688,-48.588 81.016,-57.757 40.414,-142.546 -21.682,-104.331 z"
   id="path4-8"
   style="fill:#000000" />

</g>
  </g>
</svg>
