<?xml version="1.0" encoding="UTF-8" standalone="no"?>
<svg
   width="256"
   height="256"
   viewBox="0 0 256 256"
   version="1.1"
   id="svg2"
   sodipodi:docname="uu011.svg"
   inkscape:version="1.4.2 (f4327f4, 2025-05-13)"
   xmlns:inkscape="http://www.inkscape.org/namespaces/inkscape"
   xmlns:sodipodi="http://sodipodi.sourceforge.net/DTD/sodipodi-0.dtd"
   xmlns="http://www.w3.org/2000/svg"
   xmlns:svg="http://www.w3.org/2000/svg">
  <defs
     id="defs2" />
  <sodipodi:namedview
     id="namedview2"
     pagecolor="#ffffff"
     bordercolor="#000000"
     borderopacity="0.25"
     inkscape:showpageshadow="2"
     inkscape:pageopacity="0.0"
     inkscape:pagecheckerboard="0"
     inkscape:deskcolor="#d1d1d1"
     showgrid="false"
     inkscape:zoom="3.1523438"
     inkscape:cx="108.33209"
     inkscape:cy="125.14498"
     inkscape:window-width="1920"
     inkscape:window-height="1009"
     inkscape:window-x="-8"
     inkscape:window-y="-8"
     inkscape:window-maximized="1"
     inkscape:current-layer="layer2" />
  <g
     inkscape:groupmode="layer"
     id="layer1"
     inkscape:label="Fundo">
    <rect
       style="fill:#6a6b6e;fill-opacity:0.6;stroke:#000000"
       id="rect3"
       width="240"
       height="240"
       x="8"
       y="8"
       rx="20.0002"
       ry="20"
       inkscape:label="Fundo"
       sodipodi:insensitive="true" />
  </g>
  <!-- Borda externa -->
  <!-- Borda interna (chanfro / brilho suave) -->
  <!-- Aqui dentro você desenha o ícone depois -->
  <!-- <g id="icon"> … </g> -->
  <g
     inkscape:groupmode="layer"
     id="layer3"
     inkscape:label="Borda"
     sodipodi:insensitive="true">
    <rect
       x="8"
       y="8"
       width="240"
       height="240"
       rx="28"
       ry="28"
       fill="none"
       stroke="#2b1a10"
       stroke-width="8"
       id="rect1"
       inkscape:label="Externa" />
    <rect
       x="16"
       y="16"
       width="224"
       height="224"
       rx="22"
       ry="22"
       fill="none"
       stroke="#6b4a32"
       stroke-width="4"
       id="rect2"
       inkscape:label="Interna" />
  </g>
  <g
     inkscape:groupmode="layer"
     id="layer2"
     inkscape:label="Contract">
    <path
       fill="#000000"
       d="m 55.286806,30.100188 c -0.390119,0.0018 -0.77952,0.01126 -1.168239,0.02782 -0.888739,0.03837 -1.773618,0.116544 -2.653297,0.236563 -7.036935,0.958522 -13.663531,4.768877 -18.257588,11.748593 -8.588294,13.050111 0.765559,34.2042 19.758367,34.2042 0.187,0 0.36916,-0.0041 0.552358,-0.0077 v 0.245657 h 21.133146 c -3.753818,11.16378 -10.571993,23.237582 -18.300847,35.392329 -0.7544,1.18638 -1.484381,2.39997 -2.194797,3.63099 l 12.17009,12.46843 -19.632046,3.28801 c -11.419892,29.99642 -9.567734,63.5317 16.845466,63.5317 v -6.7e-4 l 3.248579,0.0233 c 8.315074,-0.19898 16.306348,-1.49971 21.398324,-4.4967 1.456461,-0.85769 2.662358,-1.82737 3.652299,-2.93803 H 80.51713 c -7.093816,2.07615 -14.236491,-2.4216 -16.53805,-9.04506 -3.125058,-8.99199 2.623979,-18.27016 11.119452,-21.09372 2.024858,-0.67344 4.090557,-0.98887 6.129016,-0.98887 v -0.14161 h 62.225272 c -0.19877,-15.49369 5.70507,-31.44761 17.16194,-43.96561 8.35872,-9.13368 14.66568,-21.153738 17.90029,-33.094938 l -14.38477,-8.699574 13.35438,-2.409734 -15.13324,-9.004926 h -10e-4 l 7.1e-4,-6.97e-4 7e-4,6.97e-4 18.18885,-3.088061 C 178.71466,42.267288 170.47705,32.155544 153.54329,32.155544 138.23143,35.130551 96.697899,36.187821 71.30601,33.817166 66.111093,31.457331 60.647137,30.075552 55.28718,30.100328 Z m 0.162001,6.526101 c 4.583936,0.015 9.563212,1.327344 14.392448,3.709161 l 0.01204,-0.02439 c 1.628478,1.652201 2.980598,3.397566 4.075557,5.228769 H 48.13007 l 3.689617,5.157233 c 3.701477,5.174687 6.909934,11.162384 7.358994,14.663581 0.224379,1.7506 -0.0384,2.500806 -0.632959,3.083177 -0.594938,0.582721 -2.17316,1.352119 -5.579436,1.352119 -14.16217,0 -19.846647,-15.685259 -14.31047,-24.097345 3.653337,-5.550486 8.309514,-8.13957 13.69007,-8.872333 1.0084,-0.137814 2.045778,-0.203439 3.103397,-0.19994 z m 5.095816,15.434375 H 76.69327 c 1.49168,5.49012 1.2757,11.53923 -0.1898,17.973565 H 65.08776 c 0.662978,-1.754093 0.791379,-3.689624 0.558299,-5.502685 -0.53282,-4.156843 -2.583857,-8.397081 -5.101395,-12.47088 z M 95.979858,162.70573 c 2.247143,2.3867 3.905259,5.34218 4.665242,8.69333 1.32488,5.83974 1.0789,10.88952 -0.61657,15.07531 -1.579275,3.89934 -4.388188,6.90541 -7.777729,9.07228 h 82.763509 c 5.04139,0 8.6839,-1.98124 11.23566,-4.99604 2.55139,-3.01478 3.90805,-7.15801 3.73534,-11.28869 -0.065,-1.56077 -0.34126,-3.11004 -0.83992,-4.59894 l -24.3939,-2.86301 14.66113,-7.16291 c -2.90312,-1.20101 -6.50412,-1.93203 -10.9478,-1.93203 H 95.979754 Z m -14.88829,0.1766 c -0.401979,-0.001 -0.80464,0.016 -1.206258,0.0535 -0.91874,0.0844 -1.834,0.27042 -2.73006,0.56877 -5.272375,1.75163 -8.841273,7.516 -7.017054,12.76505 1.281639,3.68819 5.355076,6.17959 8.951535,4.86344 l 0.542599,-0.19901 h 15.127653 c 0.330091,-2.21923 0.26309,-4.84388 -0.473842,-8.09246 -1.294544,-5.70786 -7.168138,-9.93868 -13.194914,-9.95856 z"
       id="path1-0"
       style="fill:#000000;fill-opacity:1;stroke-width:0.348935" />
  </g>
  <g
     inkscape:groupmode="layer"
     id="layer4"
     inkscape:label="Upgrade">
    <path
       d="m 212.63868,196.66552 c -1.28578,-2.94266 -4.2221,-4.99914 -7.63868,-4.99914 -4.60158,0 -8.3319,3.73033 -8.3319,8.3319 v 3.38075 M 205,210.82975 v 3.33277 m -8.3319,-10.78349 c 0.78556,-0.048 1.754,-0.048 2.99946,-0.048 h 10.66484 c 2.79986,0 4.19961,0 5.26909,0.5449 0.94067,0.47927 1.70537,1.24397 2.18463,2.18464 0.5449,1.06946 0.5449,2.46923 0.5449,5.26909 v 2.33294 c 0,2.79986 0,4.19961 -0.5449,5.26909 -0.47926,0.94067 -1.24396,1.70537 -2.18463,2.18464 -1.06947,0.5449 -2.46923,0.5449 -5.26909,0.5449 h -10.66484 c -2.79979,0 -4.19967,0 -5.26904,-0.5449 -0.94063,-0.47926 -1.7054,-1.24397 -2.18469,-2.18464 -0.54487,-1.06948 -0.54487,-2.46924 -0.54487,-5.26909 v -2.33293 c 0,-2.79987 0,-4.19962 0.54487,-5.2691 0.4793,-0.94067 1.24406,-1.70537 2.1847,-2.18463 0.59366,-0.30234 1.2892,-0.4371 2.26957,-0.49691 z"
       stroke="#000000"
       stroke-width="3.33276"
       stroke-linecap="round"
       stroke-linejoin="round"
       id="path1"
       style="fill:none" />
  </g>
</svg>
